# xmcd CD database file
#
# Track frame offsets:
#	150
#	21789
#	45738
#	63827
#	89537
#	116330
#	138900
#	162030
#	182027
#	200633
#	213654
#	234532
#	250945
#	266316
#
# Disc length: 3889 seconds
#
# Revision: 0
# Processed by: cddbd v1.4PL0 Copyright (c) Steve Scherf et al.
# Submitted via: CDex 1.50
#
DISCID=bf0f2f0e
DTITLE=SWISS YERBA BUENA CREOLE RICE JAZZ BAND - TOME II
DYEAR=1900
DGENRE=Jazz
TTITLE0=BIG BEAR STOMP
TTITLE1=MABELS DREAM
TTITLE2=SWEET LOTUS BLOSSOM
TTITLE3=CREOLE JAZZ
TTITLE4=NEW ORLEANS VOICE
TTITLE5=SAINT GERMAIN DANCE
TTITLE6=AUNTIES SKINNER'S
TTITLE7=SUNST CAFE STOMP
TTITLE8=CAKE WALKING BABIES
TTITLE9=MAPLE LEAF RAG
TTITLE10=CANAL STREET BLUES
TTITLE11=SI TU VOIS MA MERE
TTITLE12=PETITE FLEUR
TTITLE13=DANS LES RUES D'ANTIBES
EXTD=
EXTT0=
EXTT1=
EXTT2=
EXTT3=
EXTT4=
EXTT5=
EXTT6=
EXTT7=
EXTT8=
EXTT9=
EXTT10=
EXTT11=
EXTT12=
EXTT13=
PLAYORDER=
